<svg width="323" height="484" viewBox="0 0 323 484" fill="none" xmlns="http://www.w3.org/2000/svg">
<path d="M322.269 483.46H305.271V466.194H322.269V483.46Z" fill="#FCF9F9" fill-opacity="0.1"/>
<path d="M305.271 483.46H288.273V466.194H305.271V483.46Z" fill="#FCF9F9" fill-opacity="0.1"/>
<path d="M237.279 483.46H220.281V466.194H237.279V483.46Z" fill="#FCF9F9" fill-opacity="0.1"/>
<path d="M220.281 483.46H203.283V466.194H220.281V483.46Z" fill="#FCF9F9" fill-opacity="0.1"/>
<path d="M203.283 483.46H186.285V466.194H203.283V483.46Z" fill="#FCF9F9" fill-opacity="0.1"/>
<path d="M101.294 483.46H84.2964V466.194H101.294V483.46Z" fill="#FCF9F9" fill-opacity="0.1"/>
<path d="M322.269 466.194H305.271V448.927H322.269V466.194Z" fill="#FCF9F9" fill-opacity="0.1"/>
<path d="M254.277 466.194H237.279V448.927H254.277V466.194Z" fill="#FCF9F9" fill-opacity="0.1"/>
<path d="M237.279 466.194H220.281V448.927H237.279V466.194Z" fill="#FCF9F9" fill-opacity="0.1"/>
<path d="M220.281 466.194H203.283V448.927H220.281V466.194Z" fill="#FCF9F9" fill-opacity="0.1"/>
<path d="M101.294 466.194H84.2964V448.927H101.294V466.194Z" fill="#FCF9F9" fill-opacity="0.1"/>
<path d="M84.2964 466.194H67.2983V448.927H84.2964V466.194Z" fill="#FCF9F9" fill-opacity="0.1"/>
<path d="M16.3086 466.194H-0.689453V448.927H16.3086V466.194Z" fill="#FCF9F9" fill-opacity="0.1"/>
<path d="M271.275 448.928H254.277V431.661H271.275V448.928Z" fill="#FCF9F9" fill-opacity="0.1"/>
<path d="M254.277 448.928H237.279V431.661H254.277V448.928Z" fill="#FCF9F9" fill-opacity="0.1"/>
<path d="M237.279 448.928H220.281V431.661H237.279V448.928Z" fill="#FCF9F9" fill-opacity="0.1"/>
<path d="M101.294 448.928H84.2964V431.661H101.294V448.928Z" fill="#FCF9F9" fill-opacity="0.1"/>
<path d="M84.2964 448.928H67.2983V431.661H84.2964V448.928Z" fill="#FCF9F9" fill-opacity="0.1"/>
<path d="M67.2983 448.928H50.3003V431.661H67.2983V448.928Z" fill="#FCF9F9" fill-opacity="0.1"/>
<path d="M33.3067 448.928H16.3086V431.661H33.3067V448.928Z" fill="#FCF9F9" fill-opacity="0.1"/>
<path d="M16.3086 448.928H-0.689453V431.661H16.3086V448.928Z" fill="#FCF9F9" fill-opacity="0.1"/>
<path d="M288.273 431.661H271.275V414.395H288.273V431.661Z" fill="#FCF9F9" fill-opacity="0.1"/>
<path d="M271.275 431.661H254.277V414.395H271.275V431.661Z" fill="#FCF9F9" fill-opacity="0.1"/>
<path d="M254.277 431.661H237.279V414.395H254.277V431.661Z" fill="#FCF9F9" fill-opacity="0.1"/>
<path d="M169.287 431.661H152.289V414.395H169.287V431.661Z" fill="#FCF9F9" fill-opacity="0.1"/>
<path d="M152.289 431.661H135.291V414.395H152.289V431.661Z" fill="#FCF9F9" fill-opacity="0.1"/>
<path d="M135.291 431.661H118.292V414.395H135.291V431.661Z" fill="#FCF9F9" fill-opacity="0.1"/>
<path d="M84.2964 431.661H67.2983V414.395H84.2964V431.661Z" fill="#FCF9F9" fill-opacity="0.1"/>
<path d="M67.2983 431.661H50.3003V414.395H67.2983V431.661Z" fill="#FCF9F9" fill-opacity="0.1"/>
<path d="M33.3067 431.661H16.3086V414.395H33.3067V431.661Z" fill="#FCF9F9" fill-opacity="0.1"/>
<path d="M16.3086 431.661H-0.689453V414.395H16.3086V431.661Z" fill="#FCF9F9" fill-opacity="0.1"/>
<path d="M305.271 414.395H288.273V397.128H305.271V414.395Z" fill="#FCF9F9" fill-opacity="0.1"/>
<path d="M288.273 414.395H271.275V397.128H288.273V414.395Z" fill="#FCF9F9" fill-opacity="0.1"/>
<path d="M271.275 414.395H254.277V397.128H271.275V414.395Z" fill="#FCF9F9" fill-opacity="0.1"/>
<path d="M152.289 414.395H135.291V397.128H152.289V414.395Z" fill="#FCF9F9" fill-opacity="0.1"/>
<path d="M135.291 414.395H118.292V397.128H135.291V414.395Z" fill="#FCF9F9" fill-opacity="0.1"/>
<path d="M118.292 414.395H101.294V397.128H118.292V414.395Z" fill="#FCF9F9" fill-opacity="0.1"/>
<path d="M67.2983 414.395H50.3003V397.128H67.2983V414.395Z" fill="#FCF9F9" fill-opacity="0.1"/>
<path d="M33.3067 414.395H16.3086V397.128H33.3067V414.395Z" fill="#FCF9F9" fill-opacity="0.1"/>
<path d="M305.271 397.128H288.273V379.861H305.271V397.128Z" fill="#FCF9F9" fill-opacity="0.1"/>
<path d="M288.273 397.128H271.275V379.861H288.273V397.128Z" fill="#FCF9F9" fill-opacity="0.1"/>
<path d="M135.291 397.128H118.292V379.861H135.291V397.128Z" fill="#FCF9F9" fill-opacity="0.1"/>
<path d="M118.292 397.128H101.294V379.861H118.292V397.128Z" fill="#FCF9F9" fill-opacity="0.1"/>
<path d="M101.294 397.128H84.2964V379.861H101.294V397.128Z" fill="#FCF9F9" fill-opacity="0.1"/>
<path d="M305.271 379.862H288.273V362.595H305.271V379.862Z" fill="#FCF9F9" fill-opacity="0.1"/>
<path d="M220.281 379.862H203.283V362.595H220.281V379.862Z" fill="#FCF9F9" fill-opacity="0.1"/>
<path d="M67.2983 379.862H50.3003V362.595H67.2983V379.862Z" fill="#FCF9F9" fill-opacity="0.1"/>
<path d="M33.3067 379.862H16.3086V362.595H33.3067V379.862Z" fill="#FCF9F9" fill-opacity="0.1"/>
<path d="M220.281 362.595H203.283V345.329H220.281V362.595Z" fill="#FCF9F9" fill-opacity="0.1"/>
<path d="M203.283 362.595H186.285V345.329H203.283V362.595Z" fill="#FCF9F9" fill-opacity="0.1"/>
<path d="M84.2964 362.595H67.2983V345.329H84.2964V362.595Z" fill="#FCF9F9" fill-opacity="0.1"/>
<path d="M67.2983 362.595H50.3003V345.329H67.2983V362.595Z" fill="#FCF9F9" fill-opacity="0.1"/>
<path d="M33.3067 362.595H16.3086V345.329H33.3067V362.595Z" fill="#FCF9F9" fill-opacity="0.1"/>
<path d="M16.3086 362.595H-0.689453V345.329H16.3086V362.595Z" fill="#FCF9F9" fill-opacity="0.1"/>
<path d="M220.281 345.329H203.283V328.063H220.281V345.329Z" fill="#FCF9F9" fill-opacity="0.1"/>
<path d="M203.283 345.329H186.285V328.063H203.283V345.329Z" fill="#FCF9F9" fill-opacity="0.1"/>
<path d="M186.285 345.329H169.287V328.063H186.285V345.329Z" fill="#FCF9F9" fill-opacity="0.1"/>
<path d="M101.294 345.329H84.2964V328.063H101.294V345.329Z" fill="#FCF9F9" fill-opacity="0.1"/>
<path d="M84.2964 345.329H67.2983V328.063H84.2964V345.329Z" fill="#FCF9F9" fill-opacity="0.1"/>
<path d="M16.3086 345.329H-0.689453V328.063H16.3086V345.329Z" fill="#FCF9F9" fill-opacity="0.1"/>
<path d="M203.283 328.062H186.285V310.796H203.283V328.062Z" fill="#FCF9F9" fill-opacity="0.1"/>
<path d="M186.285 328.062H169.287V310.796H186.285V328.062Z" fill="#FCF9F9" fill-opacity="0.1"/>
<path d="M118.292 328.062H101.294V310.796H118.292V328.062Z" fill="#FCF9F9" fill-opacity="0.1"/>
<path d="M101.294 328.062H84.2964V310.796H101.294V328.062Z" fill="#FCF9F9" fill-opacity="0.1"/>
<path d="M271.275 310.796H254.277V293.529H271.275V310.796Z" fill="#FCF9F9" fill-opacity="0.1"/>
<path d="M254.277 310.796H237.279V293.529H254.277V310.796Z" fill="#FCF9F9" fill-opacity="0.1"/>
<path d="M237.279 310.796H220.281V293.529H237.279V310.796Z" fill="#FCF9F9" fill-opacity="0.1"/>
<path d="M186.285 310.796H169.287V293.529H186.285V310.796Z" fill="#FCF9F9" fill-opacity="0.1"/>
<path d="M135.291 310.796H118.292V293.529H135.291V310.796Z" fill="#FCF9F9" fill-opacity="0.1"/>
<path d="M118.292 310.796H101.294V293.529H118.292V310.796Z" fill="#FCF9F9" fill-opacity="0.1"/>
<path d="M322.269 293.529H305.271V276.263H322.269V293.529Z" fill="#FCF9F9" fill-opacity="0.1"/>
<path d="M254.277 293.529H237.279V276.263H254.277V293.529Z" fill="#FCF9F9" fill-opacity="0.1"/>
<path d="M237.279 293.529H220.281V276.263H237.279V293.529Z" fill="#FCF9F9" fill-opacity="0.1"/>
<path d="M220.281 293.529H203.283V276.263H220.281V293.529Z" fill="#FCF9F9" fill-opacity="0.1"/>
<path d="M152.289 293.529H135.291V276.263H152.289V293.529Z" fill="#FCF9F9" fill-opacity="0.1"/>
<path d="M135.291 293.529H118.292V276.263H135.291V293.529Z" fill="#FCF9F9" fill-opacity="0.1"/>
<path d="M322.269 276.263H305.271V258.997H322.269V276.263Z" fill="#FCF9F9" fill-opacity="0.1"/>
<path d="M305.271 276.263H288.273V258.997H305.271V276.263Z" fill="#FCF9F9" fill-opacity="0.1"/>
<path d="M237.279 276.263H220.281V258.997H237.279V276.263Z" fill="#FCF9F9" fill-opacity="0.1"/>
<path d="M220.281 276.263H203.283V258.997H220.281V276.263Z" fill="#FCF9F9" fill-opacity="0.1"/>
<path d="M203.283 276.263H186.285V258.997H203.283V276.263Z" fill="#FCF9F9" fill-opacity="0.1"/>
<path d="M169.287 276.263H152.289V258.997H169.287V276.263Z" fill="#FCF9F9" fill-opacity="0.1"/>
<path d="M152.289 276.263H135.291V258.997H152.289V276.263Z" fill="#FCF9F9" fill-opacity="0.1"/>
<path d="M50.3047 276.263H33.3066V258.997H50.3047V276.263Z" fill="#FCF9F9" fill-opacity="0.1"/>
<path d="M322.269 258.997H305.271V241.73H322.269V258.997Z" fill="#FCF9F9" fill-opacity="0.1"/>
<path d="M305.271 258.997H288.273V241.73H305.271V258.997Z" fill="#FCF9F9" fill-opacity="0.1"/>
<path d="M288.273 258.997H271.275V241.73H288.273V258.997Z" fill="#FCF9F9" fill-opacity="0.1"/>
<path d="M67.2983 258.997H50.3003V241.73H67.2983V258.997Z" fill="#FCF9F9" fill-opacity="0.1"/>
<path d="M50.3047 258.997H33.3066V241.73H50.3047V258.997Z" fill="#FCF9F9" fill-opacity="0.1"/>
<path d="M33.3067 258.997H16.3086V241.73H33.3067V258.997Z" fill="#FCF9F9" fill-opacity="0.1"/>
<path d="M322.269 241.73H305.271V224.464H322.269V241.73Z" fill="#FCF9F9" fill-opacity="0.1"/>
<path d="M305.271 241.73H288.273V224.464H305.271V241.73Z" fill="#FCF9F9" fill-opacity="0.1"/>
<path d="M237.279 241.73H220.281V224.464H237.279V241.73Z" fill="#FCF9F9" fill-opacity="0.1"/>
<path d="M220.281 241.73H203.283V224.464H220.281V241.73Z" fill="#FCF9F9" fill-opacity="0.1"/>
<path d="M203.283 241.73H186.285V224.464H203.283V241.73Z" fill="#FCF9F9" fill-opacity="0.1"/>
<path d="M169.287 241.73H152.289V224.464H169.287V241.73Z" fill="#FCF9F9" fill-opacity="0.1"/>
<path d="M152.289 241.73H135.291V224.464H152.289V241.73Z" fill="#FCF9F9" fill-opacity="0.1"/>
<path d="M50.3047 241.73H33.3066V224.464H50.3047V241.73Z" fill="#FCF9F9" fill-opacity="0.1"/>
<path d="M322.269 224.464H305.271V207.197H322.269V224.464Z" fill="#FCF9F9" fill-opacity="0.1"/>
<path d="M254.277 224.464H237.279V207.197H254.277V224.464Z" fill="#FCF9F9" fill-opacity="0.1"/>
<path d="M237.279 224.464H220.281V207.197H237.279V224.464Z" fill="#FCF9F9" fill-opacity="0.1"/>
<path d="M220.281 224.464H203.283V207.197H220.281V224.464Z" fill="#FCF9F9" fill-opacity="0.1"/>
<path d="M152.289 224.464H135.291V207.197H152.289V224.464Z" fill="#FCF9F9" fill-opacity="0.1"/>
<path d="M135.291 224.464H118.292V207.197H135.291V224.464Z" fill="#FCF9F9" fill-opacity="0.1"/>
<path d="M271.275 207.197H254.277V189.931H271.275V207.197Z" fill="#FCF9F9" fill-opacity="0.1"/>
<path d="M254.277 207.197H237.279V189.931H254.277V207.197Z" fill="#FCF9F9" fill-opacity="0.1"/>
<path d="M237.279 207.197H220.281V189.931H237.279V207.197Z" fill="#FCF9F9" fill-opacity="0.1"/>
<path d="M186.285 207.197H169.287V189.931H186.285V207.197Z" fill="#FCF9F9" fill-opacity="0.1"/>
<path d="M135.291 207.197H118.292V189.931H135.291V207.197Z" fill="#FCF9F9" fill-opacity="0.1"/>
<path d="M118.292 207.197H101.294V189.931H118.292V207.197Z" fill="#FCF9F9" fill-opacity="0.1"/>
<path d="M203.283 189.931H186.285V172.665H203.283V189.931Z" fill="#FCF9F9" fill-opacity="0.1"/>
<path d="M186.285 189.931H169.287V172.665H186.285V189.931Z" fill="#FCF9F9" fill-opacity="0.1"/>
<path d="M118.292 189.931H101.294V172.665H118.292V189.931Z" fill="#FCF9F9" fill-opacity="0.1"/>
<path d="M101.294 189.931H84.2964V172.665H101.294V189.931Z" fill="#FCF9F9" fill-opacity="0.1"/>
<path d="M220.281 172.665H203.283V155.398H220.281V172.665Z" fill="#FCF9F9" fill-opacity="0.1"/>
<path d="M203.283 172.665H186.285V155.398H203.283V172.665Z" fill="#FCF9F9" fill-opacity="0.1"/>
<path d="M186.285 172.665H169.287V155.398H186.285V172.665Z" fill="#FCF9F9" fill-opacity="0.1"/>
<path d="M101.294 172.665H84.2964V155.398H101.294V172.665Z" fill="#FCF9F9" fill-opacity="0.1"/>
<path d="M84.2964 172.665H67.2983V155.398H84.2964V172.665Z" fill="#FCF9F9" fill-opacity="0.1"/>
<path d="M16.3086 172.665H-0.689453V155.398H16.3086V172.665Z" fill="#FCF9F9" fill-opacity="0.1"/>
<path d="M220.281 155.398H203.283V138.132H220.281V155.398Z" fill="#FCF9F9" fill-opacity="0.1"/>
<path d="M203.283 155.398H186.285V138.132H203.283V155.398Z" fill="#FCF9F9" fill-opacity="0.1"/>
<path d="M84.2964 155.398H67.2983V138.132H84.2964V155.398Z" fill="#FCF9F9" fill-opacity="0.1"/>
<path d="M67.2983 155.398H50.3003V138.132H67.2983V155.398Z" fill="#FCF9F9" fill-opacity="0.1"/>
<path d="M33.3067 155.398H16.3086V138.132H33.3067V155.398Z" fill="#FCF9F9" fill-opacity="0.1"/>
<path d="M16.3086 155.398H-0.689453V138.132H16.3086V155.398Z" fill="#FCF9F9" fill-opacity="0.1"/>
<path d="M220.281 138.132H203.283V120.865H220.281V138.132Z" fill="#FCF9F9" fill-opacity="0.1"/>
<path d="M67.2983 138.132H50.3003V120.865H67.2983V138.132Z" fill="#FCF9F9" fill-opacity="0.1"/>
<path d="M33.3067 138.132H16.3086V120.865H33.3067V138.132Z" fill="#FCF9F9" fill-opacity="0.1"/>
<path d="M305.271 120.865H288.273V103.599H305.271V120.865Z" fill="#FCF9F9" fill-opacity="0.1"/>
<path d="M305.271 103.599H288.273V86.3322H305.271V103.599Z" fill="#FCF9F9" fill-opacity="0.1"/>
<path d="M288.273 103.599H271.275V86.3322H288.273V103.599Z" fill="#FCF9F9" fill-opacity="0.1"/>
<path d="M135.291 103.599H118.292V86.3322H135.291V103.599Z" fill="#FCF9F9" fill-opacity="0.1"/>
<path d="M118.292 103.599H101.294V86.3322H118.292V103.599Z" fill="#FCF9F9" fill-opacity="0.1"/>
<path d="M101.294 103.599H84.2964V86.3322H101.294V103.599Z" fill="#FCF9F9" fill-opacity="0.1"/>
<path d="M305.271 86.332H288.273V69.0656H305.271V86.332Z" fill="#FCF9F9" fill-opacity="0.1"/>
<path d="M288.273 86.332H271.275V69.0656H288.273V86.332Z" fill="#FCF9F9" fill-opacity="0.1"/>
<path d="M271.275 86.332H254.277V69.0656H271.275V86.332Z" fill="#FCF9F9" fill-opacity="0.1"/>
<path d="M152.289 86.332H135.291V69.0656H152.289V86.332Z" fill="#FCF9F9" fill-opacity="0.1"/>
<path d="M135.291 86.332H118.292V69.0656H135.291V86.332Z" fill="#FCF9F9" fill-opacity="0.1"/>
<path d="M118.292 86.332H101.294V69.0656H118.292V86.332Z" fill="#FCF9F9" fill-opacity="0.1"/>
<path d="M67.2983 86.332H50.3003V69.0656H67.2983V86.332Z" fill="#FCF9F9" fill-opacity="0.1"/>
<path d="M33.3067 86.332H16.3086V69.0656H33.3067V86.332Z" fill="#FCF9F9" fill-opacity="0.1"/>
<path d="M288.273 69.0659H271.275V51.7995H288.273V69.0659Z" fill="#FCF9F9" fill-opacity="0.1"/>
<path d="M271.275 69.0659H254.277V51.7995H271.275V69.0659Z" fill="#FCF9F9" fill-opacity="0.1"/>
<path d="M254.277 69.0659H237.279V51.7995H254.277V69.0659Z" fill="#FCF9F9" fill-opacity="0.1"/>
<path d="M169.287 69.0659H152.289V51.7995H169.287V69.0659Z" fill="#FCF9F9" fill-opacity="0.1"/>
<path d="M152.289 69.0659H135.291V51.7995H152.289V69.0659Z" fill="#FCF9F9" fill-opacity="0.1"/>
<path d="M135.291 69.0659H118.292V51.7995H135.291V69.0659Z" fill="#FCF9F9" fill-opacity="0.1"/>
<path d="M84.2964 69.0659H67.2983V51.7995H84.2964V69.0659Z" fill="#FCF9F9" fill-opacity="0.1"/>
<path d="M67.2983 69.0659H50.3003V51.7995H67.2983V69.0659Z" fill="#FCF9F9" fill-opacity="0.1"/>
<path d="M33.3067 69.0659H16.3086V51.7995H33.3067V69.0659Z" fill="#FCF9F9" fill-opacity="0.1"/>
<path d="M16.3086 69.0659H-0.689453V51.7995H16.3086V69.0659Z" fill="#FCF9F9" fill-opacity="0.1"/>
<path d="M271.275 51.7993H254.277V34.5329H271.275V51.7993Z" fill="#FCF9F9" fill-opacity="0.1"/>
<path d="M254.277 51.7993H237.279V34.5329H254.277V51.7993Z" fill="#FCF9F9" fill-opacity="0.1"/>
<path d="M237.279 51.7993H220.281V34.5329H237.279V51.7993Z" fill="#FCF9F9" fill-opacity="0.1"/>
<path d="M101.294 51.7993H84.2964V34.5329H101.294V51.7993Z" fill="#FCF9F9" fill-opacity="0.1"/>
<path d="M84.2964 51.7993H67.2983V34.5329H84.2964V51.7993Z" fill="#FCF9F9" fill-opacity="0.1"/>
<path d="M67.2983 51.7993H50.3003V34.5329H67.2983V51.7993Z" fill="#FCF9F9" fill-opacity="0.1"/>
<path d="M33.3067 51.7993H16.3086V34.5329H33.3067V51.7993Z" fill="#FCF9F9" fill-opacity="0.1"/>
<path d="M16.3086 51.7993H-0.689453V34.5329H16.3086V51.7993Z" fill="#FCF9F9" fill-opacity="0.1"/>
<path d="M322.269 34.5327H305.271V17.2663H322.269V34.5327Z" fill="#FCF9F9" fill-opacity="0.1"/>
<path d="M254.277 34.5327H237.279V17.2663H254.277V34.5327Z" fill="#FCF9F9" fill-opacity="0.1"/>
<path d="M237.279 34.5327H220.281V17.2663H237.279V34.5327Z" fill="#FCF9F9" fill-opacity="0.1"/>
<path d="M220.281 34.5327H203.283V17.2663H220.281V34.5327Z" fill="#FCF9F9" fill-opacity="0.1"/>
<path d="M101.294 34.5327H84.2964V17.2663H101.294V34.5327Z" fill="#FCF9F9" fill-opacity="0.1"/>
<path d="M84.2964 34.5327H67.2983V17.2663H84.2964V34.5327Z" fill="#FCF9F9" fill-opacity="0.1"/>
<path d="M16.3086 34.5327H-0.689453V17.2663H16.3086V34.5327Z" fill="#FCF9F9" fill-opacity="0.1"/>
<path d="M322.269 17.2666H305.271V0.000160217H322.269V17.2666Z" fill="#FCF9F9" fill-opacity="0.1"/>
<path d="M305.271 17.2666H288.273V0.000160217H305.271V17.2666Z" fill="#FCF9F9" fill-opacity="0.1"/>
<path d="M237.279 17.2666H220.281V0.000160217H237.279V17.2666Z" fill="#FCF9F9" fill-opacity="0.1"/>
<path d="M220.281 17.2666H203.283V0.000160217H220.281V17.2666Z" fill="#FCF9F9" fill-opacity="0.1"/>
<path d="M203.283 17.2666H186.285V0.000160217H203.283V17.2666Z" fill="#FCF9F9" fill-opacity="0.1"/>
<path d="M101.294 17.2666H84.2964V0.000160217H101.294V17.2666Z" fill="#FCF9F9" fill-opacity="0.1"/>
</svg>
